<?xml version="1.0" encoding="utf-8"?>
<svg viewBox="0 0 100 100" y="0" x="0" xmlns="http://www.w3.org/2000/svg" version="1.1" xmlns:xlink="http://www.w3.org/1999/xlink">
<g><path fill="#f7b26a" d="M50 92.5c-9 0-17.7-2.8-25-8.1l8.8-12.1c4.7 3.4 10.3 5.3 16.2 5.3s11.5-1.8 16.2-5.3L75 84.4c-7.3 5.3-16 8.1-25 8.1z" style="fill:rgb(69, 69, 69)"></path></g>
<g><path fill="#acbd81" d="M75 84.4l-8.8-12.1c7.1-5.2 11.4-13.5 11.4-22.3 0-2.9-.5-5.8-1.3-8.5l14.2-4.6c1.4 4.2 2.1 8.7 2.1 13.1C92.5 63.5 86 76.4 75 84.4z" style="fill:rgb(244, 88, 102)"></path></g>
<g><path fill="#e15c64" d="M23.8 41.5L9.6 36.9C15.3 19.3 31.5 7.5 50 7.5v14.9c-12 0-22.5 7.7-26.2 19.1z" style="fill:rgb(182, 198, 73)"></path></g>
<g><path fill="#f47e5f" d="M25 84.4C14 76.4 7.5 63.5 7.5 50c0-4.5.7-8.9 2.1-13.1l14.2 4.6c-.9 2.8-1.3 5.6-1.3 8.5 0 8.8 4.2 17.1 11.4 22.3L25 84.4z" style="fill:rgb(127, 149, 209)"></path></g>
<g><path fill="#849b87" d="M76.2 41.5c-3.7-11.4-14.2-19-26.2-19v-15c18.5 0 34.7 11.8 40.4 29.4l-14.2 4.6z" style="fill:rgb(122, 156, 198)"></path></g>
</svg>